<svg width="68" height="46" viewBox="0 0 68 46" fill="none" xmlns="http://www.w3.org/2000/svg">
<g clip-path="url(#clip0_98_15)">
<path d="M15.8835 26.7155C15.394 26.4831 14.8635 26.3494 14.3223 26.3221C13.7812 26.2948 13.2399 26.3744 12.7295 26.5564C12.2191 26.7383 11.7495 27.019 11.3476 27.3825C10.9458 27.7459 10.6194 28.185 10.3873 28.6746L9.90535 29.6904L8.88957 29.2085C7.90092 28.7395 6.76643 28.6824 5.73568 29.0498C4.70493 29.4172 3.86236 30.179 3.39331 31.1677C2.92427 32.1563 2.86717 33.2908 3.23459 34.3216C3.60201 35.3523 4.36384 36.1949 5.35249 36.6639L6.36827 37.1459L13.8237 40.6829L17.3608 33.2275L17.8427 32.2117C18.0751 31.7222 18.2087 31.1917 18.236 30.6505C18.2633 30.1094 18.1837 29.5681 18.0018 29.0577C17.8199 28.5473 17.5391 28.0777 17.1757 27.6758C16.8122 27.274 16.3731 26.9476 15.8835 26.7155Z" fill="#ED5D52"/>
</g>
<g clip-path="url(#clip1_98_15)">
<path d="M63.5835 23.2754C63.3636 22.7802 63.0482 22.3332 62.6554 21.9599C62.2626 21.5866 61.8001 21.2944 61.2943 21.0999C60.7886 20.9054 60.2494 20.8125 59.7078 20.8264C59.1661 20.8404 58.6324 20.9609 58.1373 21.1811L57.11 21.6378L56.6533 20.6104C56.2088 19.6105 55.3853 18.8281 54.3639 18.4353C53.3426 18.0426 52.207 18.0716 51.2071 18.5161C50.2071 18.9606 49.4247 19.7841 49.032 20.8055C48.6392 21.8268 48.6683 22.9624 49.1128 23.9623L49.5695 24.9897L52.9214 32.5302L60.4619 29.1783L61.4892 28.7216C61.9844 28.5016 62.4315 28.1862 62.8047 27.7934C63.178 27.4006 63.4702 26.9381 63.6647 26.4324C63.8592 25.9266 63.9521 25.3875 63.9382 24.8458C63.9243 24.3041 63.8038 23.7705 63.5835 23.2754Z" fill="#ED5D52"/>
</g>
<path d="M34.2291 3.7414C33.8531 3.35125 33.4039 3.039 32.9072 2.8225C32.4104 2.606 31.8759 2.48949 31.3341 2.47963C30.7924 2.46977 30.2539 2.56675 29.7497 2.76502C29.2454 2.9633 28.7851 3.25899 28.3951 3.6352L27.5858 4.4156L26.8054 3.60626C26.0458 2.81854 25.0045 2.36481 23.9104 2.3449C22.8163 2.32498 21.7591 2.74051 20.9713 3.50007C20.1836 4.25962 19.7299 5.30099 19.71 6.39509C19.6901 7.48918 20.1056 8.54637 20.8651 9.3341L21.6455 10.1434L27.3734 16.0837L33.3136 10.3558L34.123 9.57543C34.5131 9.19941 34.8254 8.75019 35.0418 8.25346C35.2583 7.75672 35.3749 7.22219 35.3847 6.68042C35.3946 6.13864 35.2976 5.60023 35.0993 5.09595C34.9011 4.59166 34.6054 4.13138 34.2291 3.7414Z" fill="#ED5D52"/>
<defs>
<clipPath id="clip0_98_15">
<rect width="18" height="18" fill="white" transform="translate(0 28.7067) rotate(-19.619)"/>
</clipPath>
<clipPath id="clip1_98_15">
<rect width="18" height="18" fill="white" transform="translate(50.236 14.4384) rotate(21.0339)"/>
</clipPath>
</defs>
</svg>
