<svg width="68" height="96" viewBox="0 0 68 96" fill="none" xmlns="http://www.w3.org/2000/svg">
<g clip-path="url(#clip0_134_31)">
<path d="M15.8835 26.7155C15.394 26.4831 14.8635 26.3494 14.3224 26.3221C13.7812 26.2948 13.2399 26.3744 12.7295 26.5564C12.2191 26.7383 11.7495 27.019 11.3477 27.3825C10.9458 27.7459 10.6194 28.185 10.3873 28.6746L9.90536 29.6904L8.88958 29.2085C7.90093 28.7395 6.76645 28.6824 5.7357 29.0498C4.70495 29.4172 3.86237 30.179 3.39333 31.1677C2.92428 32.1563 2.86719 33.2908 3.2346 34.3216C3.60202 35.3523 4.36385 36.1949 5.35251 36.6639L6.36828 37.1459L13.8237 40.6829L17.3608 33.2275L17.8427 32.2117C18.0751 31.7222 18.2087 31.1917 18.236 30.6505C18.2633 30.1094 18.1838 29.5681 18.0018 29.0577C17.8199 28.5473 17.5392 28.0777 17.1757 27.6758C16.8122 27.274 16.3732 26.9476 15.8835 26.7155Z" fill="#ED5D52"/>
</g>
<g clip-path="url(#clip1_134_31)">
<path d="M63.5835 23.2754C63.3635 22.7802 63.0481 22.3332 62.6553 21.9599C62.2626 21.5866 61.8001 21.2944 61.2943 21.0999C60.7886 20.9054 60.2494 20.8125 59.7077 20.8264C59.1661 20.8404 58.6324 20.9609 58.1373 21.1811L57.11 21.6378L56.6533 20.6104C56.2088 19.6105 55.3853 18.8281 54.3639 18.4353C53.3425 18.0426 52.207 18.0716 51.2071 18.5161C50.2071 18.9606 49.4247 19.7841 49.032 20.8055C48.6392 21.8268 48.6683 22.9624 49.1128 23.9623L49.5695 24.9897L52.9214 32.5302L60.4619 29.1783L61.4892 28.7216C61.9844 28.5016 62.4314 28.1862 62.8047 27.7934C63.178 27.4006 63.4702 26.9381 63.6647 26.4324C63.8592 25.9266 63.9521 25.3875 63.9382 24.8458C63.9243 24.3041 63.8037 23.7705 63.5835 23.2754Z" fill="#ED5D52"/>
</g>
<path d="M34.2292 3.74139C33.8531 3.35124 33.4039 3.03899 32.9072 2.82249C32.4104 2.606 31.8759 2.48949 31.3342 2.47962C30.7924 2.46976 30.254 2.56674 29.7497 2.76502C29.2454 2.96329 28.7851 3.25898 28.3951 3.63519L27.5858 4.41559L26.8054 3.60626C26.0458 2.81853 25.0045 2.3648 23.9104 2.34489C22.8163 2.32497 21.7591 2.7405 20.9714 3.50006C20.1836 4.25962 19.7299 5.30099 19.71 6.39508C19.6901 7.48917 20.1056 8.54637 20.8652 9.33409L21.6456 10.1434L27.3734 16.0837L33.3136 10.3558L34.123 9.57543C34.5131 9.1994 34.8254 8.75018 35.0419 8.25345C35.2584 7.75671 35.3749 7.22219 35.3847 6.68041C35.3946 6.13864 35.2976 5.60022 35.0993 5.09594C34.9011 4.59165 34.6054 4.13137 34.2292 3.74139Z" fill="#ED5D52"/>
<mask id="mask0_134_31" style="mask-type:alpha" maskUnits="userSpaceOnUse" x="12" y="52" width="44" height="38">
<path d="M51.5826 56.2237C50.5611 55.2017 49.3482 54.3909 48.0133 53.8378C46.6784 53.2847 45.2476 53 43.8026 53C42.3576 53 40.9268 53.2847 39.5919 53.8378C38.257 54.3909 37.0441 55.2017 36.0226 56.2237L33.9026 58.3437L31.7826 56.2237C29.7192 54.1603 26.9206 53.0011 24.0026 53.0011C21.0845 53.0011 18.286 54.1603 16.2226 56.2237C14.1592 58.287 13 61.0856 13 64.0037C13 66.9217 14.1592 69.7203 16.2226 71.7837L18.3426 73.9037L33.9026 89.4636L49.4626 73.9037L51.5826 71.7837C52.6046 70.7621 53.4153 69.5493 53.9684 68.2144C54.5215 66.8794 54.8062 65.4486 54.8062 64.0037C54.8062 62.5587 54.5215 61.1279 53.9684 59.7929C53.4153 58.458 52.6046 57.2452 51.5826 56.2237Z" fill="#D9D9D9" stroke="#7E7D7D" stroke-linecap="round" stroke-linejoin="round"/>
</mask>
<g mask="url(#mask0_134_31)">
<path d="M9 67.1177L10.0444 67.9344C11.0944 68.7594 13.1833 70.3927 15.2667 70.7427C17.35 71.0927 19.4278 70.1427 21.5111 69.1177C23.5944 68.0927 25.6833 66.976 27.7667 66.4094C29.85 65.8427 31.9278 65.8094 34.0111 66.6594C36.0944 67.5094 38.1833 69.226 40.2667 70.3094C42.35 71.3927 44.4278 71.8427 46.5111 70.9927C48.5944 70.1427 50.6833 68.0094 52.7667 67.7594C54.85 67.5094 56.9278 69.1427 57.9611 69.9677L59 70.7844V81.7844H57.9611C56.9278 81.7844 54.85 81.7844 52.7667 81.7844C50.6833 81.7844 48.5944 81.7844 46.5111 81.7844C44.4278 81.7844 42.35 81.7844 40.2667 81.7844C38.1833 81.7844 36.0944 81.7844 34.0111 81.7844C31.9278 81.7844 29.85 81.7844 27.7667 81.7844C25.6833 81.7844 23.5944 81.7844 21.5111 81.7844C19.4278 81.7844 17.35 81.7844 15.2667 81.7844C13.1833 81.7844 11.0944 81.7844 10.0444 81.7844H9V67.1177Z" fill="#FCB3AE"/>
<path d="M9 74.5344L10.0444 73.726C11.0944 72.926 13.1833 71.3094 15.2667 70.326C17.35 69.3427 19.4278 68.976 21.5111 70.076C23.5944 71.176 25.6833 73.726 27.7667 74.3427C29.85 74.951 31.9278 73.6177 34.0111 72.7427C36.0944 71.8677 38.1833 71.451 40.2667 70.951C42.35 70.451 44.4278 69.8677 46.5111 70.101C48.5944 70.3427 50.6833 71.3927 52.7667 71.2677C54.85 71.1427 56.9278 69.8427 57.9611 69.1844L59 68.5344V81.7844H57.9611C56.9278 81.7844 54.85 81.7844 52.7667 81.7844C50.6833 81.7844 48.5944 81.7844 46.5111 81.7844C44.4278 81.7844 42.35 81.7844 40.2667 81.7844C38.1833 81.7844 36.0944 81.7844 34.0111 81.7844C31.9278 81.7844 29.85 81.7844 27.7667 81.7844C25.6833 81.7844 23.5944 81.7844 21.5111 81.7844C19.4278 81.7844 17.35 81.7844 15.2667 81.7844C13.1833 81.7844 11.0944 81.7844 10.0444 81.7844H9V74.5344Z" fill="#FF837A"/>
<path d="M9 71.8333L11.1667 75.3333C11.9722 76.5417 12.6111 78 15.2778 79.4167C17.4043 80.5464 20.6944 80.7067 22.7778 78.5833C24.8611 76.4199 26.5556 74.5833 27.6667 73.75C31.0848 71.1864 32.4722 70.8862 34.5556 71.1667C36.6389 71.4071 38.4444 72.4167 40.3889 73.75C42.3333 75.0833 43.1389 75.2756 45.2222 78C47.3056 80.7244 49.3611 81.766 51.4444 78C53.5278 74.274 54.7778 72.6667 57.3889 72.6667L59 73.1177V114.784H57.9611C56.9278 114.784 54.85 114.784 52.7667 114.784C50.6833 114.784 48.5944 114.784 46.5111 114.784C44.4278 114.784 42.35 114.784 40.2667 114.784C38.1833 114.784 36.0944 114.784 34.0111 114.784C31.9278 114.784 29.85 114.784 27.7667 114.784C25.6833 114.784 23.5944 114.784 21.5111 114.784C19.4278 114.784 17.35 114.784 15.2667 114.784C13.1833 114.784 11.0944 114.784 10.0444 114.784H9V71.8333Z" fill="#ED5D52"/>
<path d="M51.5826 56.2237C50.5611 55.2017 49.3482 54.3909 48.0133 53.8378C46.6784 53.2847 45.2476 53 43.8026 53C42.3576 53 40.9268 53.2847 39.5919 53.8378C38.257 54.3909 37.0441 55.2017 36.0226 56.2237L33.9026 58.3437L31.7826 56.2237C29.7192 54.1603 26.9206 53.0011 24.0026 53.0011C21.0845 53.0011 18.286 54.1603 16.2226 56.2237C14.1592 58.287 13 61.0856 13 64.0037C13 66.9217 14.1592 69.7203 16.2226 71.7837L18.3426 73.9037L33.9026 89.4636L49.4626 73.9037L51.5826 71.7837C52.6046 70.7621 53.4153 69.5493 53.9684 68.2144C54.5215 66.8794 54.8062 65.4486 54.8062 64.0037C54.8062 62.5587 54.5215 61.1279 53.9684 59.7929C53.4153 58.458 52.6046 57.2452 51.5826 56.2237Z" stroke="#7E7D7D" stroke-linecap="round" stroke-linejoin="round"/>
</g>
<defs>
<clipPath id="clip0_134_31">
<rect width="18" height="18" fill="white" transform="translate(0 28.7067) rotate(-19.619)"/>
</clipPath>
<clipPath id="clip1_134_31">
<rect width="18" height="18" fill="white" transform="translate(50.236 14.4384) rotate(21.0339)"/>
</clipPath>
</defs>
</svg>
