<svg id="visual" viewBox="0 0 900 600" width="900" height="600" xmlns="http://www.w3.org/2000/svg" xmlns:xlink="http://www.w3.org/1999/xlink" version="1.1"><rect x="0" y="0" width="900" height="600" fill="#001220"></rect><path d="M0 425L18.8 434.8C37.7 444.7 75.3 464.3 112.8 468.5C150.3 472.7 187.7 461.3 225.2 449C262.7 436.7 300.3 423.3 337.8 416.5C375.3 409.7 412.7 409.3 450.2 419.5C487.7 429.7 525.3 450.3 562.8 463.3C600.3 476.3 637.7 481.7 675.2 471.5C712.7 461.3 750.3 435.7 787.8 432.7C825.3 429.7 862.7 449.3 881.3 459.2L900 469L900 601L881.3 601C862.7 601 825.3 601 787.8 601C750.3 601 712.7 601 675.2 601C637.7 601 600.3 601 562.8 601C525.3 601 487.7 601 450.2 601C412.7 601 375.3 601 337.8 601C300.3 601 262.7 601 225.2 601C187.7 601 150.3 601 112.8 601C75.3 601 37.7 601 18.8 601L0 601Z" fill="#fa7268"></path><path d="M0 514L18.8 504.3C37.7 494.7 75.3 475.3 112.8 463.5C150.3 451.7 187.7 447.3 225.2 460.5C262.7 473.7 300.3 504.3 337.8 511.7C375.3 519 412.7 503 450.2 492.5C487.7 482 525.3 477 562.8 471C600.3 465 637.7 458 675.2 460.8C712.7 463.7 750.3 476.3 787.8 474.8C825.3 473.3 862.7 457.7 881.3 449.8L900 442L900 601L881.3 601C862.7 601 825.3 601 787.8 601C750.3 601 712.7 601 675.2 601C637.7 601 600.3 601 562.8 601C525.3 601 487.7 601 450.2 601C412.7 601 375.3 601 337.8 601C300.3 601 262.7 601 225.2 601C187.7 601 150.3 601 112.8 601C75.3 601 37.7 601 18.8 601L0 601Z" fill="#e34c67"></path><path d="M0 529L18.8 535C37.7 541 75.3 553 112.8 560.5C150.3 568 187.7 571 225.2 565.7C262.7 560.3 300.3 546.7 337.8 535.8C375.3 525 412.7 517 450.2 517.7C487.7 518.3 525.3 527.7 562.8 535C600.3 542.3 637.7 547.7 675.2 554.5C712.7 561.3 750.3 569.7 787.8 560.3C825.3 551 862.7 524 881.3 510.5L900 497L900 601L881.3 601C862.7 601 825.3 601 787.8 601C750.3 601 712.7 601 675.2 601C637.7 601 600.3 601 562.8 601C525.3 601 487.7 601 450.2 601C412.7 601 375.3 601 337.8 601C300.3 601 262.7 601 225.2 601C187.7 601 150.3 601 112.8 601C75.3 601 37.7 601 18.8 601L0 601Z" fill="#c62368"></path></svg>